<mxfile host="app.diagrams.net" agent="Mozilla/5.0 (Windows NT 10.0; Win64; x64) AppleWebKit/537.36 (KHTML, like Gecko) Chrome/130.0.0.0 Safari/537.36" version="24.8.0">
  <diagram name="第 1 页" id="vx7_abRNMlwdQiWkKpIo">
    <mxGraphModel dx="819" dy="446" grid="1" gridSize="10" guides="1" tooltips="1" connect="1" arrows="1" fold="1" page="1" pageScale="1" pageWidth="827" pageHeight="1169" math="0" shadow="0">
      <root>
        <mxCell id="0" />
        <mxCell id="1" parent="0" />
        <mxCell id="AwFK9_NXIlLO-7JiCI5e-11" value="api-server" style="rounded=1;whiteSpace=wrap;html=1;" vertex="1" parent="1">
          <mxGeometry x="170" y="241" width="90" height="40" as="geometry" />
        </mxCell>
        <mxCell id="AwFK9_NXIlLO-7JiCI5e-10" value="proxy-server" style="rounded=1;whiteSpace=wrap;html=1;" vertex="1" parent="1">
          <mxGeometry x="376" y="305.5" width="90" height="40" as="geometry" />
        </mxCell>
        <mxCell id="AwFK9_NXIlLO-7JiCI5e-1" value="托管etcd" style="rounded=1;whiteSpace=wrap;html=1;" vertex="1" parent="1">
          <mxGeometry x="170" y="320" width="90" height="40" as="geometry" />
        </mxCell>
        <mxCell id="AwFK9_NXIlLO-7JiCI5e-2" value="kube-api" style="rounded=1;whiteSpace=wrap;html=1;" vertex="1" parent="1">
          <mxGeometry x="180" y="230" width="90" height="40" as="geometry" />
        </mxCell>
        <mxCell id="AwFK9_NXIlLO-7JiCI5e-6" value="LB" style="text;html=1;align=center;verticalAlign=middle;whiteSpace=wrap;rounded=0;" vertex="1" parent="1">
          <mxGeometry x="193" y="231" width="60" height="10" as="geometry" />
        </mxCell>
        <mxCell id="AwFK9_NXIlLO-7JiCI5e-7" value="proxy-server" style="rounded=1;whiteSpace=wrap;html=1;" vertex="1" parent="1">
          <mxGeometry x="366" y="314.5" width="90" height="40" as="geometry" />
        </mxCell>
        <mxCell id="AwFK9_NXIlLO-7JiCI5e-8" value="" style="endArrow=classic;html=1;rounded=0;exitX=1;exitY=0.5;exitDx=0;exitDy=0;entryX=0;entryY=0.5;entryDx=0;entryDy=0;fillColor=#f8cecc;strokeColor=#b85450;" edge="1" parent="1" source="AwFK9_NXIlLO-7JiCI5e-2" target="AwFK9_NXIlLO-7JiCI5e-7">
          <mxGeometry width="50" height="50" relative="1" as="geometry">
            <mxPoint x="350" y="300" as="sourcePoint" />
            <mxPoint x="380" y="250" as="targetPoint" />
          </mxGeometry>
        </mxCell>
        <mxCell id="AwFK9_NXIlLO-7JiCI5e-9" value="本地socket:uds" style="text;html=1;align=center;verticalAlign=middle;whiteSpace=wrap;rounded=0;" vertex="1" parent="1">
          <mxGeometry x="310" y="260" width="90" height="30" as="geometry" />
        </mxCell>
        <mxCell id="AwFK9_NXIlLO-7JiCI5e-12" value="proxy-agent" style="rounded=1;whiteSpace=wrap;html=1;" vertex="1" parent="1">
          <mxGeometry x="366" y="440" width="94" height="40" as="geometry" />
        </mxCell>
        <mxCell id="AwFK9_NXIlLO-7JiCI5e-13" value="" style="endArrow=classic;html=1;rounded=0;exitX=0.5;exitY=1;exitDx=0;exitDy=0;entryX=0.5;entryY=0;entryDx=0;entryDy=0;" edge="1" parent="1" source="AwFK9_NXIlLO-7JiCI5e-11" target="AwFK9_NXIlLO-7JiCI5e-1">
          <mxGeometry width="50" height="50" relative="1" as="geometry">
            <mxPoint x="270" y="350" as="sourcePoint" />
            <mxPoint x="320" y="300" as="targetPoint" />
          </mxGeometry>
        </mxCell>
        <mxCell id="AwFK9_NXIlLO-7JiCI5e-14" value="&lt;font style=&quot;font-size: 6px;&quot;&gt;1. rbac&lt;/font&gt;&lt;div&gt;&lt;font style=&quot;font-size: 6px;&quot;&gt;2. 接入集群信息&lt;/font&gt;&lt;/div&gt;&lt;div&gt;&lt;font style=&quot;font-size: 6px;&quot;&gt;&amp;nbsp; &amp;nbsp;a.&amp;nbsp; api地址&lt;/font&gt;&lt;/div&gt;&lt;div&gt;&lt;font style=&quot;font-size: 6px;&quot;&gt;&amp;nbsp; &amp;nbsp;b.&amp;nbsp; kubeconfig: ca/token&lt;/font&gt;&lt;/div&gt;" style="text;html=1;align=left;verticalAlign=top;whiteSpace=wrap;rounded=0;strokeColor=none;dashed=1;spacing=0;" vertex="1" parent="1">
          <mxGeometry x="90" y="300" width="80" height="60" as="geometry" />
        </mxCell>
        <mxCell id="AwFK9_NXIlLO-7JiCI5e-16" value="" style="endArrow=classic;html=1;rounded=0;exitX=0.75;exitY=0;exitDx=0;exitDy=0;entryX=0.5;entryY=1;entryDx=0;entryDy=0;" edge="1" parent="1" source="AwFK9_NXIlLO-7JiCI5e-12" target="AwFK9_NXIlLO-7JiCI5e-20">
          <mxGeometry width="50" height="50" relative="1" as="geometry">
            <mxPoint x="230" y="530" as="sourcePoint" />
            <mxPoint x="434" y="400" as="targetPoint" />
          </mxGeometry>
        </mxCell>
        <mxCell id="AwFK9_NXIlLO-7JiCI5e-17" value="" style="endArrow=classic;html=1;rounded=0;entryX=0.25;entryY=0;entryDx=0;entryDy=0;exitX=0.25;exitY=1;exitDx=0;exitDy=0;fillColor=#f8cecc;strokeColor=#b85450;" edge="1" parent="1" source="AwFK9_NXIlLO-7JiCI5e-7" target="AwFK9_NXIlLO-7JiCI5e-12">
          <mxGeometry width="50" height="50" relative="1" as="geometry">
            <mxPoint x="444" y="457" as="sourcePoint" />
            <mxPoint x="444" y="365" as="targetPoint" />
          </mxGeometry>
        </mxCell>
        <mxCell id="AwFK9_NXIlLO-7JiCI5e-18" value="kube-api" style="rounded=1;whiteSpace=wrap;html=1;" vertex="1" parent="1">
          <mxGeometry x="490" y="440" width="94" height="40" as="geometry" />
        </mxCell>
        <mxCell id="AwFK9_NXIlLO-7JiCI5e-19" value="" style="endArrow=classic;html=1;rounded=0;entryX=0;entryY=0.5;entryDx=0;entryDy=0;exitX=1;exitY=0.5;exitDx=0;exitDy=0;" edge="1" parent="1" source="AwFK9_NXIlLO-7JiCI5e-12" target="AwFK9_NXIlLO-7JiCI5e-18">
          <mxGeometry width="50" height="50" relative="1" as="geometry">
            <mxPoint x="410" y="540" as="sourcePoint" />
            <mxPoint x="460" y="490" as="targetPoint" />
          </mxGeometry>
        </mxCell>
        <mxCell id="AwFK9_NXIlLO-7JiCI5e-20" value="LB" style="text;html=1;align=center;verticalAlign=middle;whiteSpace=wrap;rounded=0;" vertex="1" parent="1">
          <mxGeometry x="422" y="380" width="34" height="10" as="geometry" />
        </mxCell>
        <mxCell id="AwFK9_NXIlLO-7JiCI5e-22" value="" style="endArrow=classic;html=1;rounded=0;exitX=0.5;exitY=0;exitDx=0;exitDy=0;entryX=0.75;entryY=1;entryDx=0;entryDy=0;" edge="1" parent="1" source="AwFK9_NXIlLO-7JiCI5e-20" target="AwFK9_NXIlLO-7JiCI5e-7">
          <mxGeometry width="50" height="50" relative="1" as="geometry">
            <mxPoint x="460" y="430" as="sourcePoint" />
            <mxPoint x="510" y="380" as="targetPoint" />
          </mxGeometry>
        </mxCell>
      </root>
    </mxGraphModel>
  </diagram>
</mxfile>
